<?xml version="1.0" encoding="utf-8"?>
<!-- Generator: Adobe Illustrator 19.1.0, SVG Export Plug-In . SVG Version: 6.00 Build 0)  -->
<svg version="1.1" id="Layer_1" xmlns="http://www.w3.org/2000/svg" xmlns:xlink="http://www.w3.org/1999/xlink" x="0px" y="0px"
	 viewBox="-278 264.5 284 67.8" style="enable-background:new -278 264.5 284 67.8;" xml:space="preserve">
<style type="text/css">
	.st0{fill:#09102B;}
	.st1{fill:#FFFFFF;}
	.st2{fill:#41CD52;}
</style>
<polygon class="st0" points="-290.8,285.5 -290.8,242.7 -278,230 -469.9,230 -482.7,242.7 -482.7,285.5 -482.7,289 -482.7,297.8 
	-473.9,297.8 -470.7,297.8 -290.8,297.8 -290.8,289 "/>
<g>
	<g>
		<path class="st1" d="M-457.2,252h9.1c2.5,0,4.3,0.5,5.5,1.5c1.2,1,1.8,2.6,1.8,4.8c0,1.4-0.2,2.6-0.7,3.4c-0.5,0.8-1.2,1.5-2.2,2
			c2.3,0.9,3.4,2.8,3.4,5.6c0,4.6-2.6,6.8-7.7,6.8h-9.4V252H-457.2z M-448.3,255.4h-5v6.9h5.2c2.3,0,3.4-1.2,3.4-3.6
			C-444.7,256.5-445.9,255.4-448.3,255.4z M-448,265.6h-5.2v7.1h5.3c1.3,0,2.3-0.3,2.9-0.8c0.6-0.5,1-1.5,1-2.8
			c0-1.3-0.4-2.2-1.1-2.8C-446,265.9-446.9,265.6-448,265.6z"/>
		<path class="st1" d="M-425.5,258.5h3.8v17.6h-3.8V275c-1.7,1-3.3,1.5-4.7,1.5c-2.4,0-4-0.7-4.9-2c-0.8-1.3-1.2-3.6-1.2-6.8v-9.2
			h3.8v9.2c0,2.1,0.2,3.5,0.5,4.3c0.4,0.7,1.2,1.1,2.5,1.1c1.3,0,2.4-0.2,3.5-0.7l0.5-0.2V258.5L-425.5,258.5z"/>
		<path class="st1" d="M-417,255.5v-4h3.8v4H-417z M-417,276.1v-17.6h3.8v17.6H-417z"/>
		<path class="st1" d="M-408.3,276.1v-24.9h3.8v24.9H-408.3z"/>
		<path class="st1" d="M-390.2,261.8h-4.9v7.7c0,1.4,0.1,2.4,0.3,2.8c0.2,0.5,0.8,0.7,1.6,0.7l2.9-0.1l0.2,3.1
			c-1.6,0.3-2.8,0.5-3.6,0.5c-2,0-3.4-0.5-4.1-1.4c-0.7-0.9-1.1-2.6-1.1-5.2v-8.2h-2.3v-3.2h2.3v-5.1h3.8v5.1h4.9
			C-390.2,258.5-390.2,261.8-390.2,261.8z"/>
		<path class="st1" d="M-380.7,258.5h3.8l2.8,14.3h0.7l3.3-14h3.9l3.3,14h0.7l2.8-14.3h3.8l-3.7,17.6h-6.1l-2.7-12.1l-2.7,12.1h-6.2
			L-380.7,258.5z"/>
		<path class="st1" d="M-352.3,255.5v-4h3.8v4H-352.3z M-352.3,276.1v-17.6h3.8v17.6H-352.3z"/>
		<path class="st1" d="M-334.3,261.8h-4.9v7.7c0,1.4,0.1,2.4,0.3,2.8c0.2,0.5,0.8,0.7,1.6,0.7l2.9-0.1l0.2,3.1
			c-1.6,0.3-2.8,0.5-3.6,0.5c-2,0-3.4-0.5-4.1-1.4c-0.7-0.9-1.1-2.6-1.1-5.1v-8.2h-2.3v-3.3h2.3v-5.1h3.8v5.1h4.9V261.8z"/>
		<path class="st1" d="M-327.4,276.1h-3.8v-24.9h3.8v8.3c1.7-0.9,3.3-1.3,4.8-1.3c2.3,0,3.9,0.7,4.8,2c0.9,1.3,1.3,3.5,1.3,6.6v9.4
			h-3.8v-9.4c0-1.9-0.2-3.2-0.6-4c-0.4-0.8-1.2-1.2-2.5-1.2c-1.1,0-2.3,0.2-3.4,0.6l-0.6,0.2V276.1z"/>
	</g>
</g>
<polygon class="st2" points="-207.7,230 -210.9,230 -278.2,230 -278.2,230 -291,242.7 -291,285.5 -291,289 -291,297.8 -282.1,297.8 
	-278.9,297.8 -211.7,297.8 -211.7,297.8 -198.9,285 -198.9,242.3 -198.9,238.8 -198.9,230 "/>
<path class="st1" d="M-256.7,283.1c-6.1,0-10.3-1.6-12.7-4.9c-2.4-3.3-3.6-8.4-3.6-15.5c0-7.1,1.2-12.3,3.6-15.7s6.6-5.1,12.6-5.1
	c6,0,10.2,1.7,12.6,5.1s3.6,8.6,3.6,15.7c0,4.7-0.5,8.4-1.5,11.3s-2.6,5.1-4.9,6.6l4.9,7.9l-6,2.8l-5.2-8.5
	C-253.9,283-255.1,283.1-256.7,283.1z M-264.3,274c1.3,2.3,3.8,3.4,7.6,3.4c3.8,0,6.2-1.1,7.6-3.4c1.3-2.2,2-6,2-11.3
	c0-5.3-0.7-9.2-2-11.6c-1.4-2.4-3.9-3.6-7.6-3.6c-3.7,0-6.2,1.2-7.5,3.6c-1.4,2.4-2,6.3-2,11.5C-266.2,268-265.6,271.7-264.3,274z"
	/>
<path class="st1" d="M-218,258h-8v12.8c0,2.4,0.2,3.9,0.5,4.7s1.2,1.2,2.7,1.2l4.8-0.2l0.3,5.1c-2.6,0.5-4.6,0.8-5.9,0.8
	c-3.3,0-5.6-0.8-6.8-2.3c-1.2-1.5-1.8-4.4-1.8-8.6V258h-4.5v-5.4h4.5v-8.5h6.3v8.5h8v5.4H-218z"/>
</svg>
