<?xml version="1.0" encoding="UTF-8"?>
<svg xmlns="http://www.w3.org/2000/svg" xmlns:xlink="http://www.w3.org/1999/xlink" width="142pt" height="34pt" viewBox="0 0 142 34" version="1.1">
<g id="surface1">
<path style=" stroke:none;fill-rule:nonzero;fill:rgb(3.529412%,6.27451%,16.862745%);fill-opacity:1;" d="M 95.90625 7.15625 L 102.304688 0.804688 L 6.355469 0.804688 L -0.0429688 7.15625 L -0.0429688 34.707031 L 95.90625 34.707031 Z M 95.90625 7.15625 "/>
<path style=" stroke:none;fill-rule:nonzero;fill:rgb(100%,100%,100%);fill-opacity:1;" d="M 12.707031 11.804688 L 17.253906 11.804688 C 18.503906 11.804688 19.40625 12.054688 20.003906 12.554688 C 20.605469 13.054688 20.90625 13.855469 20.90625 14.957031 C 20.90625 15.65625 20.804688 16.253906 20.554688 16.65625 C 20.304688 17.054688 19.957031 17.40625 19.457031 17.65625 C 20.605469 18.105469 21.15625 19.054688 21.15625 20.457031 C 21.15625 22.753906 19.855469 23.855469 17.304688 23.855469 L 12.605469 23.855469 L 12.605469 11.804688 Z M 17.15625 13.503906 L 14.65625 13.503906 L 14.65625 16.957031 L 17.253906 16.957031 C 18.40625 16.957031 18.957031 16.355469 18.957031 15.15625 C 18.957031 14.054688 18.355469 13.503906 17.15625 13.503906 Z M 17.304688 18.605469 L 14.707031 18.605469 L 14.707031 22.15625 L 17.355469 22.15625 C 18.003906 22.15625 18.503906 22.003906 18.804688 21.753906 C 19.105469 21.503906 19.304688 21.003906 19.304688 20.355469 C 19.304688 19.707031 19.105469 19.253906 18.753906 18.957031 C 18.304688 18.753906 17.855469 18.605469 17.304688 18.605469 Z M 17.304688 18.605469 "/>
<path style=" stroke:none;fill-rule:nonzero;fill:rgb(100%,100%,100%);fill-opacity:1;" d="M 28.554688 15.054688 L 30.457031 15.054688 L 30.457031 23.855469 L 28.554688 23.855469 L 28.554688 23.304688 C 27.707031 23.804688 26.90625 24.054688 26.207031 24.054688 C 25.003906 24.054688 24.207031 23.707031 23.753906 23.054688 C 23.355469 22.40625 23.15625 21.253906 23.15625 19.65625 L 23.15625 15.054688 L 25.054688 15.054688 L 25.054688 19.65625 C 25.054688 20.707031 25.15625 21.40625 25.304688 21.804688 C 25.503906 22.15625 25.90625 22.355469 26.554688 22.355469 C 27.207031 22.355469 27.753906 22.253906 28.304688 22.003906 L 28.554688 21.90625 Z M 28.554688 15.054688 "/>
<path style=" stroke:none;fill-rule:nonzero;fill:rgb(100%,100%,100%);fill-opacity:1;" d="M 32.804688 13.554688 L 32.804688 11.554688 L 34.707031 11.554688 L 34.707031 13.554688 Z M 32.804688 23.855469 L 32.804688 15.054688 L 34.707031 15.054688 L 34.707031 23.855469 Z M 32.804688 23.855469 "/>
<path style=" stroke:none;fill-rule:nonzero;fill:rgb(100%,100%,100%);fill-opacity:1;" d="M 37.15625 23.855469 L 37.15625 11.40625 L 39.054688 11.40625 L 39.054688 23.855469 Z M 37.15625 23.855469 "/>
<path style=" stroke:none;fill-rule:nonzero;fill:rgb(100%,100%,100%);fill-opacity:1;" d="M 46.207031 16.707031 L 43.753906 16.707031 L 43.753906 20.554688 C 43.753906 21.253906 43.804688 21.753906 43.90625 21.957031 C 44.003906 22.207031 44.304688 22.304688 44.707031 22.304688 L 46.15625 22.253906 L 46.253906 23.804688 C 45.457031 23.957031 44.855469 24.054688 44.457031 24.054688 C 43.457031 24.054688 42.753906 23.804688 42.40625 23.355469 C 42.054688 22.90625 41.855469 22.054688 41.855469 20.753906 L 41.855469 16.65625 L 40.707031 16.65625 L 40.707031 15.054688 L 41.855469 15.054688 L 41.855469 12.503906 L 43.753906 12.503906 L 43.753906 15.054688 L 46.207031 15.054688 C 46.207031 15.054688 46.207031 16.707031 46.207031 16.707031 Z M 46.207031 16.707031 "/>
<path style=" stroke:none;fill-rule:nonzero;fill:rgb(100%,100%,100%);fill-opacity:1;" d="M 50.957031 15.054688 L 52.855469 15.054688 L 54.253906 22.207031 L 54.605469 22.207031 L 56.253906 15.207031 L 58.207031 15.207031 L 59.855469 22.207031 L 60.207031 22.207031 L 61.605469 15.054688 L 63.503906 15.054688 L 61.65625 23.855469 L 58.605469 23.855469 L 57.253906 17.804688 L 55.90625 23.855469 L 52.804688 23.855469 Z M 50.957031 15.054688 "/>
<path style=" stroke:none;fill-rule:nonzero;fill:rgb(100%,100%,100%);fill-opacity:1;" d="M 65.15625 13.554688 L 65.15625 11.554688 L 67.054688 11.554688 L 67.054688 13.554688 Z M 65.15625 23.855469 L 65.15625 15.054688 L 67.054688 15.054688 L 67.054688 23.855469 Z M 65.15625 23.855469 "/>
<path style=" stroke:none;fill-rule:nonzero;fill:rgb(100%,100%,100%);fill-opacity:1;" d="M 74.15625 16.707031 L 71.707031 16.707031 L 71.707031 20.554688 C 71.707031 21.253906 71.753906 21.753906 71.855469 21.957031 C 71.957031 22.207031 72.253906 22.304688 72.65625 22.304688 L 74.105469 22.253906 L 74.207031 23.804688 C 73.40625 23.957031 72.804688 24.054688 72.40625 24.054688 C 71.40625 24.054688 70.707031 23.804688 70.355469 23.355469 C 70.003906 22.90625 69.804688 22.054688 69.804688 20.804688 L 69.804688 16.707031 L 68.65625 16.707031 L 68.65625 15.054688 L 69.804688 15.054688 L 69.804688 12.503906 L 71.707031 12.503906 L 71.707031 15.054688 L 74.15625 15.054688 Z M 74.15625 16.707031 "/>
<path style=" stroke:none;fill-rule:nonzero;fill:rgb(100%,100%,100%);fill-opacity:1;" d="M 77.605469 23.855469 L 75.707031 23.855469 L 75.707031 11.40625 L 77.605469 11.40625 L 77.605469 15.554688 C 78.457031 15.105469 79.253906 14.90625 80.003906 14.90625 C 81.15625 14.90625 81.957031 15.253906 82.40625 15.90625 C 82.855469 16.554688 83.054688 17.65625 83.054688 19.207031 L 83.054688 23.90625 L 81.15625 23.90625 L 81.15625 19.207031 C 81.15625 18.253906 81.054688 17.605469 80.855469 17.207031 C 80.65625 16.804688 80.253906 16.605469 79.605469 16.605469 C 79.054688 16.605469 78.457031 16.707031 77.90625 16.90625 L 77.605469 17.003906 Z M 77.605469 23.855469 "/>
<path style=" stroke:none;fill-rule:nonzero;fill:rgb(25.490196%,80.392157%,32.156863%);fill-opacity:1;" d="M 135.855469 0.804688 L 102.207031 0.804688 L 95.804688 7.15625 L 95.804688 34.707031 L 135.457031 34.707031 L 141.855469 28.304688 L 141.855469 0.804688 Z M 135.855469 0.804688 "/>
<path style=" stroke:none;fill-rule:nonzero;fill:rgb(100%,100%,100%);fill-opacity:1;" d="M 112.957031 27.355469 C 109.90625 27.355469 107.804688 26.554688 106.605469 24.90625 C 105.40625 23.253906 104.804688 20.707031 104.804688 17.15625 C 104.804688 13.605469 105.40625 11.003906 106.605469 9.304688 C 107.804688 7.605469 109.90625 6.753906 112.90625 6.753906 C 115.90625 6.753906 118.003906 7.605469 119.207031 9.304688 C 120.40625 11.003906 121.003906 13.605469 121.003906 17.15625 C 121.003906 19.503906 120.753906 21.355469 120.253906 22.804688 C 119.753906 24.253906 118.957031 25.355469 117.804688 26.105469 L 120.253906 30.054688 L 117.253906 31.457031 L 114.65625 27.207031 C 114.355469 27.304688 113.753906 27.355469 112.957031 27.355469 Z M 109.15625 22.804688 C 109.804688 23.957031 111.054688 24.503906 112.957031 24.503906 C 114.855469 24.503906 116.054688 23.957031 116.753906 22.804688 C 117.40625 21.707031 117.753906 19.804688 117.753906 17.15625 C 117.753906 14.503906 117.40625 12.554688 116.753906 11.355469 C 116.054688 10.15625 114.804688 9.554688 112.957031 9.554688 C 111.105469 9.554688 109.855469 10.15625 109.207031 11.355469 C 108.503906 12.554688 108.207031 14.503906 108.207031 17.105469 C 108.207031 19.804688 108.503906 21.65625 109.15625 22.804688 Z M 109.15625 22.804688 "/>
<path style=" stroke:none;fill-rule:nonzero;fill:rgb(100%,100%,100%);fill-opacity:1;" d="M 132.304688 14.804688 L 128.304688 14.804688 L 128.304688 21.207031 C 128.304688 22.40625 128.40625 23.15625 128.554688 23.554688 C 128.707031 23.957031 129.15625 24.15625 129.90625 24.15625 L 132.304688 24.054688 L 132.457031 26.605469 C 131.15625 26.855469 130.15625 27.003906 129.503906 27.003906 C 127.855469 27.003906 126.707031 26.605469 126.105469 25.855469 C 125.503906 25.105469 125.207031 23.65625 125.207031 21.554688 L 125.207031 14.804688 L 122.957031 14.804688 L 122.957031 12.105469 L 125.207031 12.105469 L 125.207031 7.855469 L 128.355469 7.855469 L 128.355469 12.105469 L 132.355469 12.105469 L 132.355469 14.804688 Z M 132.304688 14.804688 "/>
</g>
</svg>
