<?xml version="1.0" encoding="iso-8859-1"?>
<!-- Generator: Adobe Illustrator 14.0.0, SVG Export Plug-In . SVG Version: 6.00 Build 43363)  -->
<!DOCTYPE svg PUBLIC "-//W3C//DTD SVG 1.1//EN" "http://www.w3.org/Graphics/SVG/1.1/DTD/svg11.dtd">
<svg version="1.1" id="icon-m-settings-keychain-layer"
	 xmlns="http://www.w3.org/2000/svg" xmlns:xlink="http://www.w3.org/1999/xlink" x="0px" y="0px" width="64px" height="64px"
	 viewBox="0 0 64 64" style="enable-background:new 0 0 64 64;" xml:space="preserve">
<g id="icon-m-settings-keychain">
	<rect id="_x36_4_10_" style="fill:none;" width="64" height="64"/>
	<rect id="_x33_2_75_" x="16" y="16" style="fill:none;" width="32" height="32"/>
	<path d="M63,32c0,22.967-8.029,31-31.002,31C9.031,63,1,54.967,1,32C1,9.035,9.031,1,31.998,1C54.971,1,63,9.035,63,32z"/>
	<g>
		<g>
			<path style="fill:#FFFFFF;" d="M31.5,34.571c-4.436-1.791-5-5.94-5-9.071c0-2.043,0.289-3.734,0.876-5.119
				c-0.606,0.424-1.227,0.949-1.876,1.598c-3.084,3.084-3.622,5.559-1.56,8.634L13.177,41.373l-0.052,2.881l0.696,0.695l0.012-0.012
				l-0.001,0.022h2.829l1.414-1.414h2.829v-2.828h2.829v-2.829h2.828l2.329-2.328c0.913,0.612,1.772,0.989,2.611,1.145V34.571z"/>
		</g>
		<path style="fill:#FFFFFF;" d="M37.5,18c-6.296,0-8.5,1.942-8.5,7.5c0,4.363,1.369,6.49,5,7.207v15.22L36,50h0.984v-0.017L37,50
			l2-2v-2l2-2l-2-2l2-2l-2-2l2-2v-3.293c3.631-0.717,5-2.844,5-7.207C46,19.942,43.796,18,37.5,18z M37.5,25.5
			c-1.889,0-2.551-0.648-2.551-2.502c0-1.85,0.662-2.498,2.551-2.498s2.551,0.648,2.551,2.498C40.051,24.852,39.389,25.5,37.5,25.5z
			"/>
		<rect x="35.879" y="21.186" width="3.324" height="2.906"/>
		<g>
			<path style="fill:#FFFFFF;" d="M37.666,23.752c-0.26,0-0.52-0.08-0.744-0.244c-0.555-0.412-0.67-1.195-0.26-1.75
				c0.639-0.861,0.977-1.877,0.977-2.941c0-2.792-2.355-5.064-5.25-5.064s-5.25,2.272-5.25,5.064c0,0.529,0.084,1.051,0.25,1.547
				c0.218,0.655-0.136,1.363-0.791,1.581c-0.656,0.217-1.363-0.136-1.581-0.79c-0.25-0.752-0.377-1.539-0.377-2.338
				c0-4.171,3.477-7.563,7.75-7.563c4.274,0,7.75,3.393,7.75,7.563c0,1.604-0.508,3.136-1.469,4.432
				C38.426,23.578,38.048,23.752,37.666,23.752L37.666,23.752z"/>
		</g>
	</g>
</g>
</svg>
