<?xml version="1.0" encoding="UTF-8" standalone="no"?>
<!-- Created with Inkscape (http://www.inkscape.org/) -->

<svg
   xmlns:dc="http://purl.org/dc/elements/1.1/"
   xmlns:cc="http://creativecommons.org/ns#"
   xmlns:rdf="http://www.w3.org/1999/02/22-rdf-syntax-ns#"
   xmlns:svg="http://www.w3.org/2000/svg"
   xmlns="http://www.w3.org/2000/svg"
   xmlns:sodipodi="http://sodipodi.sourceforge.net/DTD/sodipodi-0.dtd"
   xmlns:inkscape="http://www.inkscape.org/namespaces/inkscape"
   width="90"
   height="90"
   id="svg7353"
   version="1.1"
   inkscape:version="0.48.4 r9939"
   sodipodi:docname="New document 2">
  <defs
     id="defs7355" />
  <sodipodi:namedview
     id="base"
     pagecolor="#ffffff"
     bordercolor="#666666"
     borderopacity="1.0"
     inkscape:pageopacity="0.0"
     inkscape:pageshadow="2"
     inkscape:zoom="3.959798"
     inkscape:cx="70.598256"
     inkscape:cy="40.194715"
     inkscape:document-units="px"
     inkscape:current-layer="layer1"
     showgrid="false"
     inkscape:window-width="1855"
     inkscape:window-height="1056"
     inkscape:window-x="65"
     inkscape:window-y="24"
     inkscape:window-maximized="1" />
  <metadata
     id="metadata7358">
    <rdf:RDF>
      <cc:Work
         rdf:about="">
        <dc:format>image/svg+xml</dc:format>
        <dc:type
           rdf:resource="http://purl.org/dc/dcmitype/StillImage" />
        <dc:title></dc:title>
      </cc:Work>
    </rdf:RDF>
  </metadata>
  <g
     inkscape:label="Layer 1"
     inkscape:groupmode="layer"
     id="layer1"
     transform="translate(0,-962.36218)">
    <g
       transform="matrix(5.6293293,0,0,5.6292993,-565.51682,-709.55266)"
       id="layer9-5-0"
       style="fill:#808080;fill-opacity:1;display:inline">
      <path
         d="m 106.98,302.02 a 0.99828,1.0019 0 0 1 -0.98363,-1.0158 c 0,-2.1983 1.7971,-4.0019 3.9874,-4.0019 2.1903,0 3.9874,1.8037 3.9874,4.0019 a 0.99828,1.0019 0 1 1 -1.9957,0 c 0,-1.1154 -0.88029,-1.9989 -1.9916,-1.9989 -1.1114,0 -1.9916,0.88351 -1.9916,1.9989 a 0.99828,1.0019 0 0 1 -1.0121,1.0158 z"
         style="text-indent:0;text-transform:none;block-progression:tb;color:#000000;fill:#808080;fill-opacity:1"
         id="path35480-4-7"
         inkscape:connector-curvature="0" />
      <path
         d="m 108.5,309 c -1.3689,0 -2.5007,-1.1318 -2.5007,-2.5007 a 1.0005,1.0005 0 1 1 2.001,0 c 0,0.28799 0.21174,0.49973 0.49973,0.49973 0.28799,0 0.49974,-0.21174 0.49974,-0.49973 a 1.0005,1.0005 0 1 1 2.001,0 c 0,1.3689 -1.1318,2.5007 -2.5007,2.5007 z"
         style="text-indent:0;text-transform:none;block-progression:tb;color:#000000;fill:#808080;fill-opacity:1"
         id="path35482-6-1"
         inkscape:connector-curvature="0" />
      <path
         d="m 109.78,302 a 1.0001,1.0001 0 0 0 -0.78,1 v 3.4688 a 1.0001,1.0001 0 1 0 2,0 v -3.47 a 1.0001,1.0001 0 0 0 -1.2188,-1 z"
         style="text-indent:0;text-transform:none;block-progression:tb;color:#000000;fill:#808080;fill-opacity:1;enable-background:new"
         id="path35484-0-0"
         inkscape:connector-curvature="0" />
      <path
         d="m 112.78,300 a 1.0001,1.0001 0 0 0 -0.78,1 v 6.8125 a 1.0001,1.0001 0 1 0 2,0 v -6.81 a 1.0001,1.0001 0 0 0 -1.2188,-1 z"
         style="text-indent:0;text-transform:none;block-progression:tb;color:#000000;fill:#808080;fill-opacity:1;enable-background:new"
         id="path35486-5-3"
         inkscape:connector-curvature="0" />
      <path
         d="m 106.78,300 a 1.0001,1.0001 0 0 0 -0.78,1 v 5.4062 a 1.0001,1.0001 0 1 0 2,0 v -5.41 a 1.0001,1.0001 0 0 0 -1.2188,-1 z"
         style="text-indent:0;text-transform:none;block-progression:tb;color:#000000;fill:#808080;fill-opacity:1;enable-background:new"
         id="path35488-4-6"
         inkscape:connector-curvature="0" />
      <path
         d="m 103.78,301 a 1.0001,1.0001 0 0 0 -0.78,1 v 6 a 1.0001,1.0001 0 1 0 2,0 v -6 a 1.0001,1.0001 0 0 0 -1.2188,-1 z"
         style="text-indent:0;text-transform:none;block-progression:tb;color:#000000;fill:#808080;fill-opacity:1;enable-background:new"
         id="path35490-7-8"
         inkscape:connector-curvature="0" />
      <path
         d="m 112.84,307 a 1.0001,1.0001 0 0 0 -0.65625,0.40625 l -2.68,3.59 h -2.0312 l -2.6875,-3.5312 a 1.0001,1.0001 0 1 0 -1.5625,1.1875 l 3,3.9375 a 1.0001,1.0001 0 0 0 0.78,0.4 h 3 a 1.0001,1.0001 0 0 0 0.8125,-0.40625 l 3,-4 a 1.0001,1.0001 0 0 0 -0.97,-1.59 z"
         style="text-indent:0;text-transform:none;block-progression:tb;color:#000000;fill:#808080;fill-opacity:1;enable-background:new"
         id="path35494-9-7"
         inkscape:connector-curvature="0" />
    </g>
  </g>
</svg>
