<?xml version="1.0" encoding="UTF-8" standalone="no"?>
<!-- Created with Inkscape (http://www.inkscape.org/) -->
<svg id="svg3140" xmlns:rdf="http://www.w3.org/1999/02/22-rdf-syntax-ns#" xmlns="http://www.w3.org/2000/svg" height="90" width="90" version="1.1" xmlns:cc="http://creativecommons.org/ns#" xmlns:dc="http://purl.org/dc/elements/1.1/">
 <metadata id="metadata3145">
  <rdf:RDF>
   <cc:Work rdf:about="">
    <dc:format>image/svg+xml</dc:format>
    <dc:type rdf:resource="http://purl.org/dc/dcmitype/StillImage"/>
    <dc:title/>
   </cc:Work>
  </rdf:RDF>
 </metadata>
 <g id="layer1" transform="translate(0 -962.36)">
  <rect id="rect4198" style="color:#000000;fill:none" height="90" width="90" y="962.36" x="0"/>
  <g id="g4978" transform="translate(-60 548)">
   <path id="path2989" style="color:#000000;fill:#808080" d="m45 6c-21.539 0-39 17.461-39 39s17.461 39 39 39 39-17.461 39-39-17.461-39-39-39zm0 9c16.569 0 30 13.431 30 30s-13.431 30-30 30-30-13.431-30-30 13.431-30 30-30z" transform="translate(60 414.36)"/>
   <rect id="rect3011" style="color:#000000;fill:#808080" transform="rotate(-45)" height="9" width="67.5" y="394.56" x="-284.32"/>
   <rect id="rect3032" style="color:#000000;fill:none" transform="translate(60 414.36)" height="90" width="90" y=".000017383" x="0"/>
  </g>
 </g>
</svg>
