<?xml version="1.0" encoding="UTF-8" standalone="no"?>
<!-- Created with Inkscape (http://www.inkscape.org/) -->

<svg
   xmlns:dc="http://purl.org/dc/elements/1.1/"
   xmlns:cc="http://creativecommons.org/ns#"
   xmlns:rdf="http://www.w3.org/1999/02/22-rdf-syntax-ns#"
   xmlns:svg="http://www.w3.org/2000/svg"
   xmlns="http://www.w3.org/2000/svg"
   xmlns:sodipodi="http://sodipodi.sourceforge.net/DTD/sodipodi-0.dtd"
   xmlns:inkscape="http://www.inkscape.org/namespaces/inkscape"
   width="90"
   height="90.000031"
   id="svg3615"
   version="1.1"
   inkscape:version="0.48.4 r9939"
   sodipodi:docname="contact.svg">
  <defs
     id="defs3617">
    <clipPath
       clipPathUnits="userSpaceOnUse"
       id="clipPath2995-6">
      <path
         style="color:#000000;fill:#ff00ff;fill-opacity:1;fill-rule:nonzero;stroke:none;stroke-width:4;marker:none;visibility:visible;display:inline;overflow:visible;enable-background:accumulate"
         d="m 222,818.36215 0,54 126,0 0,-54 -43.875,0 c -0.0316,0.0521 -0.062,0.1043 -0.0937,0.15625 -2.2906,3.75334 -4.87723,7.16686 -7.875,9.875 -2.99777,2.70814 -6.52444,5 -11.125,5 -4.60056,0 -8.12214,-2.29391 -11.125,-5 -3.00286,-2.70609 -5.60728,-6.12218 -7.90625,-9.875 -0.0318,-0.0519 -0.062,-0.1042 -0.0937,-0.15625 L 222.0001,818.36215 Z"
         id="path2997-4"
         inkscape:connector-curvature="0" />
    </clipPath>
  </defs>
  <sodipodi:namedview
     id="base"
     pagecolor="#ffffff"
     bordercolor="#666666"
     borderopacity="1.0"
     inkscape:pageopacity="0.0"
     inkscape:pageshadow="2"
     inkscape:zoom="7.9580786"
     inkscape:cx="14.061884"
     inkscape:cy="48.900073"
     inkscape:document-units="px"
     inkscape:current-layer="layer1"
     showgrid="true"
     fit-margin-top="0"
     fit-margin-left="0"
     fit-margin-right="0"
     fit-margin-bottom="0"
     inkscape:window-width="1871"
     inkscape:window-height="1056"
     inkscape:window-x="49"
     inkscape:window-y="24"
     inkscape:window-maximized="1">
    <inkscape:grid
       type="xygrid"
       id="grid2986"
       empspacing="6"
       visible="true"
       enabled="true"
       snapvisiblegridlinesonly="true"
       originx="0px"
       originy="2.6171875e-06px" />
  </sodipodi:namedview>
  <metadata
     id="metadata3620">
    <rdf:RDF>
      <cc:Work
         rdf:about="">
        <dc:format>image/svg+xml</dc:format>
        <dc:type
           rdf:resource="http://purl.org/dc/dcmitype/StillImage" />
        <dc:title />
      </cc:Work>
    </rdf:RDF>
  </metadata>
  <g
     inkscape:label="Layer 1"
     inkscape:groupmode="layer"
     id="layer1"
     transform="translate(1978.2857,336.49495)">
    <g
       id="g4271"
       transform="translate(-2218.2857,-1106.8571)">
      <path
         style="color:#000000;fill:#808080;fill-opacity:1;fill-rule:nonzero;stroke:none;stroke-width:2;marker:none;visibility:visible;display:inline;overflow:visible;enable-background:accumulate"
         clip-path="none"
         d="M 30.21875 54.15625 C 11.057821 55.125058 6 61.297631 6 75 L 6 81 C 6 90 6 90 18 90 L 72 90 C 84 90 84 90 84 81 L 84 75 C 84 61.305107 78.947539 55.130228 59.8125 54.15625 C 58.661142 55.560765 57.451922 56.86076 56.15625 58.03125 C 53.15848 60.73939 49.63181 63.03125 45.03125 63.03125 C 40.43069 63.03125 36.90911 60.73734 33.90625 58.03125 C 32.605846 56.859364 31.377261 55.564123 30.21875 54.15625 z "
         transform="translate(240,770.36215)"
         id="rect3461-3-1" />
      <rect
         y="770.36218"
         x="240"
         height="90"
         width="90"
         id="rect4269"
         style="color:#000000;fill:none;stroke:none;stroke-width:4;marker:none;visibility:visible;display:inline;overflow:visible;enable-background:accumulate" />
      <path
         inkscape:transform-center-y="21.408856"
         inkscape:transform-center-x="-0.0067782248"
         id="path3447-0-6"
         d="m 285.00024,770.36215 c -14.99976,-3e-5 -20.99976,6.00003 -20.99976,21.00003 l 0,3 c 0,12 12.03506,33 21.01729,33 8.98223,0 20.98223,-21 20.98223,-33 l 0,-3 c 0,-15 -6,-21 -20.99976,-21.00003 z"
         style="color:#000000;fill:#ffffff;fill-opacity:1;fill-rule:nonzero;stroke:none;stroke-width:4;marker:none;visibility:visible;display:inline;overflow:visible;enable-background:accumulate"
         inkscape:connector-curvature="0"
         sodipodi:nodetypes="zsszssz" />
      <path
         style="fill:#ffffff;fill-opacity:1;stroke:none"
         d="M 11.753783,89.824538 C 8.109195,89.616714 6.8721471,88.878789 6.3357202,86.592555 6.1302823,85.716986 6.1077031,84.948819 6.1077031,78.835197 c 0,-4.777665 0.048369,-7.194572 0.1634592,-8.167801 1.0172192,-8.601808 4.8032647,-12.86083 13.3448267,-15.011946 2.596844,-0.653992 6.10889,-1.167209 9.110239,-1.331284 l 1.507902,-0.08243 0.989234,1.150077 c 1.238701,1.440108 3.090571,3.166467 4.650299,4.335126 2.840017,2.12794 5.4821,3.152688 8.512948,3.301795 5.151107,0.253419 9.754071,-2.27821 14.986661,-8.242655 l 0.483378,-0.550986 1.398683,0.08244 c 9.607172,0.566231 16.092143,2.995993 19.27701,7.222629 1.290357,1.712435 2.28349,4.031998 2.778046,6.488411 0.517571,2.570732 0.579909,3.732405 0.579909,10.806629 0,6.113622 -0.02258,6.881789 -0.228018,7.757358 -0.552841,2.356194 -1.696755,3.001482 -5.74076,3.2384 -2.431309,0.142438 -63.66143,0.1365 -66.167737,-0.0064 l 0,4e-6 z"
         id="path2993"
         inkscape:connector-curvature="0"
         transform="translate(240,770.36215)" />
      <path
         style="fill:#ffffff;fill-opacity:1;stroke:none"
         d="M 10.945554,89.691389 C 8.7710554,89.501286 7.374432,88.832584 6.8115502,87.712032 6.2540709,86.602235 6.2331027,86.261434 6.2383334,78.395392 6.2431367,71.172066 6.2530478,70.863864 6.5308195,69.300074 7.7359998,62.515187 10.655737,58.886689 16.738564,56.61442 19.583132,55.551819 23.90991,54.738223 28.53774,54.395735 l 1.570731,-0.116244 0.93647,1.03142 c 3.298138,3.63254 6.557449,6.041896 9.556013,7.064021 3.402677,1.159875 7.542912,0.847248 10.802547,-0.815693 2.196188,-1.120412 5.175629,-3.56353 7.417931,-6.082647 l 1.068097,-1.199955 0.691122,0.05805 c 0.380117,0.03193 1.426224,0.119051 2.324682,0.19361 6.94959,0.576719 12.067583,2.213055 15.474398,4.947511 2.891485,2.320829 4.543275,5.723395 5.219504,10.751786 0.239265,1.779157 0.231997,15.380175 -0.0087,16.335602 -0.54674,2.169973 -1.561738,2.826974 -4.852207,3.140793 -1.558088,0.148599 -66.086062,0.136608 -67.792746,-0.0126 l 5e-6,0 z"
         id="path2995"
         inkscape:connector-curvature="0"
         transform="translate(240,770.36215)" />
      <path
         style="fill:#ffffff;fill-opacity:1;stroke:none;opacity:0"
         d="M 10.945554,89.691389 C 8.7710554,89.501286 7.374432,88.832584 6.8115502,87.712032 6.2540709,86.602235 6.2331027,86.261434 6.2383334,78.395392 6.2431367,71.172066 6.2530478,70.863864 6.5308195,69.300074 7.7368207,62.510565 10.651593,58.888237 16.738564,56.61442 19.584001,55.551494 23.917195,54.736849 28.53774,54.396165 l 1.570731,-0.115815 0.487016,0.528356 c 4.283863,4.647503 7.407147,6.880772 10.975883,7.848184 1.119208,0.303395 1.430011,0.332737 3.49046,0.329529 2.512365,-0.0039 3.228394,-0.136293 5.295476,-0.979034 2.600708,-1.060298 5.777862,-3.541131 8.746111,-6.82927 l 0.824086,-0.912898 2.305695,0.198371 c 7.768608,0.668375 12.598491,2.167904 16.146533,5.013 2.896579,2.322702 4.541771,5.711427 5.219504,10.751003 0.239265,1.779157 0.231997,15.380175 -0.0087,16.335602 -0.54674,2.169973 -1.561738,2.826974 -4.852207,3.140793 -1.558088,0.148599 -66.086062,0.136608 -67.792746,-0.0126 l 5e-6,0 z"
         id="path2997"
         inkscape:connector-curvature="0"
         transform="translate(240,770.36215)" />
    </g>
  </g>
  <g
     inkscape:groupmode="layer"
     id="layer2"
     inkscape:label="Clips"
     sodipodi:insensitive="true"
     style="display:none">
    <path
       transform="translate(-240,-770.36215)"
       style="color:#000000;fill:#808080;fill-opacity:1;fill-rule:nonzero;stroke:none;stroke-width:2;marker:none;visibility:visible;display:inline;overflow:visible;enable-background:accumulate"
       d="m 246,851.36218 c 0,9 0,9 12,9 l 54,0 c 12,0 12,0 12,-9 l 0,-6 c 0,-15 -6,-21 -30,-21 l -18,0 C 252,824.36218 246,830.36218 246,845.36218 Z"
       id="rect3461-3-1-5"
       inkscape:connector-curvature="0"
       sodipodi:nodetypes="csscccccc"
       clip-path="url(#clipPath2995-6)" />
    <rect
       y="3.2134991e-05"
       x="0"
       height="90"
       width="90"
       id="rect4269-8"
       style="color:#000000;fill:none;stroke:none;stroke-width:4;marker:none;visibility:visible;display:inline;overflow:visible;enable-background:accumulate" />
    <path
       inkscape:transform-center-y="21.408856"
       inkscape:transform-center-x="-0.0067782248"
       id="path3447-0-6-9"
       d="M 45.00024,-4.8230939e-7 C 30.00048,-3.0482196e-5 24.00048,6.0000295 24.00048,21.00003 l 0,3 c 0,12 12.03506,33 21.01729,33 8.98223,0 20.98223,-21 20.98223,-33 l 0,-3 C 66,6.0000295 60,2.9517803e-5 45.00024,-4.8230939e-7 Z"
       style="color:#000000;fill:#808080;fill-opacity:1;fill-rule:nonzero;stroke:none;stroke-width:4;marker:none;visibility:visible;display:inline;overflow:visible;enable-background:accumulate"
       inkscape:connector-curvature="0"
       sodipodi:nodetypes="zsszssz" />
  </g>
</svg>
