<?xml version="1.0" encoding="UTF-8" standalone="no"?>
<!-- Created with Inkscape (http://www.inkscape.org/) -->

<svg
   xmlns:dc="http://purl.org/dc/elements/1.1/"
   xmlns:cc="http://creativecommons.org/ns#"
   xmlns:rdf="http://www.w3.org/1999/02/22-rdf-syntax-ns#"
   xmlns:svg="http://www.w3.org/2000/svg"
   xmlns="http://www.w3.org/2000/svg"
   xmlns:xlink="http://www.w3.org/1999/xlink"
   xmlns:sodipodi="http://sodipodi.sourceforge.net/DTD/sodipodi-0.dtd"
   xmlns:inkscape="http://www.inkscape.org/namespaces/inkscape"
   id="svg3289"
   height="90"
   width="90"
   version="1.1"
   inkscape:version="0.48.4 r9939"
   sodipodi:docname="favorite-selected.svg">
  <defs
     id="defs11">
    <linearGradient
       inkscape:collect="always"
       id="linearGradient5232">
      <stop
         style="stop-color:#dd4813;stop-opacity:1;"
         offset="0"
         id="stop5234" />
      <stop
         style="stop-color:#dd4813;stop-opacity:0;"
         offset="1"
         id="stop5236" />
    </linearGradient>
    <linearGradient
       inkscape:collect="always"
       xlink:href="#linearGradient5232"
       id="linearGradient5238"
       x1="0"
       y1="1007.335"
       x2="90"
       y2="1007.335"
       gradientUnits="userSpaceOnUse" />
  </defs>
  <sodipodi:namedview
     pagecolor="#ffffff"
     bordercolor="#666666"
     borderopacity="1"
     objecttolerance="10"
     gridtolerance="10"
     guidetolerance="10"
     inkscape:pageopacity="0"
     inkscape:pageshadow="2"
     inkscape:window-width="1855"
     inkscape:window-height="1056"
     id="namedview9"
     showgrid="false"
     inkscape:zoom="7.4167645"
     inkscape:cx="48.972086"
     inkscape:cy="35.959436"
     inkscape:window-x="65"
     inkscape:window-y="24"
     inkscape:window-maximized="1"
     inkscape:current-layer="svg3289" />
  <metadata
     id="metadata3294">
    <rdf:RDF>
      <cc:Work
         rdf:about="">
        <dc:format>image/svg+xml</dc:format>
        <dc:type
           rdf:resource="http://purl.org/dc/dcmitype/StillImage" />
        <dc:title />
      </cc:Work>
    </rdf:RDF>
  </metadata>
  <g
     id="layer1"
     transform="translate(0 -962.36)"
     style="fill:url(#linearGradient5238);fill-opacity:1">
    <g
       id="g4451"
       transform="translate(-789 604.36)"
       style="fill:url(#linearGradient5238);fill-opacity:1">
      <g
         id="g4143"
         transform="matrix(1.875 0 0 1.875 249 -1435.2)"
         style="fill:url(#linearGradient5238);fill-opacity:1">
        <rect
           id="rect4145"
           style="opacity:0.21171000000000001;fill:url(#linearGradient5238);fill-opacity:1"
           transform="translate(0 804.36)"
           height="48"
           width="48"
           y="152"
           x="288" />
      </g>
      <path
         id="path3008"
         style="color:#000000;fill:url(#linearGradient5238);fill-opacity:1"
         transform="matrix(3.4055 .17230 -.17230 3.4055 933.82 391.94)"
         d="m-42.138 2.4797c0.10923-0.40765 7.5886-2.662 7.9166-2.9276 0.32798-0.26559 4.0881-7.1128 4.5096-7.1349 0.42145-0.022087 4.8767 6.3946 5.2307 6.6245 0.35394 0.22985 8.028 1.69 8.1793 2.084 0.15124 0.394-4.5747 6.6141-4.6839 7.0217-0.10923 0.40765 0.87347 8.1573 0.5455 8.4229-0.32798 0.26559-7.704-2.3069-8.1255-2.2848-0.42145 0.02209-7.4882 3.3515-7.8421 3.1216-0.35394-0.22985-0.18669-8.0398-0.33793-8.4338s-5.5014-6.086-5.3922-6.4937z" />
    </g>
  </g>
  <path
     style="opacity:0;fill-opacity:1;stroke:none"
     d=""
     id="path5206"
     inkscape:connector-curvature="0" />
  <path
     style="opacity:0;fill-opacity:1;stroke:none"
     d="m 17.912359,86.411425 c -0.132226,-0.213948 -0.113947,-6.729536 0.04062,-14.479089 l 0.28103,-14.090095 -2.253929,-2.931716 C 14.740417,53.298084 11.496337,49.147246 8.7710114,45.686441 2.2926376,37.459758 1.2292146,35.932926 1.4951359,35.239946 1.7322524,34.62203 6.0091749,33.208386 17.199153,30.049325 20.974576,28.983479 25.09322,27.77548 26.351695,27.364882 L 28.639831,26.61834 35.784382,16.002549 C 39.713884,10.163864 43.385991,4.8935861 43.944613,4.290821 l 1.01568,-1.0959367 1.248922,1.44479 c 0.68691,0.7946345 4.363684,6.0553557 8.170612,11.6904907 6.82256,10.098965 6.947233,10.253964 8.705254,10.822624 0.980958,0.317308 5.816402,1.705295 10.745427,3.084416 11.063964,3.095652 13.76928,3.957651 14.459225,4.607163 0.696547,0.655725 0.05436,1.641235 -6.799267,10.434243 -2.849629,3.655991 -6.167597,7.946245 -7.373258,9.533898 l -2.192114,2.886644 0.01422,4.576271 c 0.0078,2.516949 0.163777,8.301451 0.346572,12.854452 0.182795,4.552997 0.236895,8.989894 0.120219,9.859771 l -0.212133,1.581589 -1.483738,-0.237256 c -0.816064,-0.130493 -6.411295,-2.013644 -12.433858,-4.184775 -6.02256,-2.171132 -11.46494,-4.118282 -12.094178,-4.326998 -1.240097,-0.411342 -2.363564,-0.0578 -17.161017,5.400476 -8.030721,2.962259 -10.763921,3.746811 -11.108827,3.188742 l 0,0 z"
     id="path5208"
     inkscape:connector-curvature="0" />
  <path
     style="opacity:0;fill-opacity:1;stroke:none"
     d="m 17.912359,86.411425 c -0.132226,-0.213948 -0.113947,-6.729536 0.04062,-14.479089 l 0.28103,-14.090095 -2.253929,-2.931716 C 14.740417,53.298084 11.496337,49.147246 8.7710114,45.686441 2.2926376,37.459758 1.2292146,35.932926 1.4951359,35.239946 1.7322524,34.62203 6.0091749,33.208386 17.199153,30.049325 20.974576,28.983479 25.09322,27.77548 26.351695,27.364882 L 28.639831,26.61834 35.784382,16.002549 C 39.713884,10.163864 43.385991,4.8935861 43.944613,4.290821 l 1.01568,-1.0959367 1.248922,1.44479 c 0.68691,0.7946345 4.363684,6.0553557 8.170612,11.6904907 6.82256,10.098965 6.947233,10.253964 8.705254,10.822624 0.980958,0.317308 5.816402,1.705295 10.745427,3.084416 11.063964,3.095652 13.76928,3.957651 14.459225,4.607163 0.696547,0.655725 0.05436,1.641235 -6.799267,10.434243 -2.849629,3.655991 -6.167597,7.946245 -7.373258,9.533898 l -2.192114,2.886644 0.01422,4.576271 c 0.0078,2.516949 0.163777,8.301451 0.346572,12.854452 0.182795,4.552997 0.236895,8.989894 0.120219,9.859771 l -0.212133,1.581589 -1.483738,-0.237256 c -0.816064,-0.130493 -6.411295,-2.013644 -12.433858,-4.184775 -6.02256,-2.171132 -11.46494,-4.118282 -12.094178,-4.326998 -1.240097,-0.411342 -2.363564,-0.0578 -17.161017,5.400476 -8.030721,2.962259 -10.763921,3.746811 -11.108827,3.188742 l 0,0 z"
     id="path5210"
     inkscape:connector-curvature="0" />
  <path
     style="opacity:0;fill-opacity:1;stroke:none"
     d="m 17.912359,86.411425 c -0.132226,-0.213948 -0.113947,-6.729536 0.04062,-14.479089 l 0.28103,-14.090095 -2.253929,-2.931716 C 14.740417,53.298084 11.496337,49.147246 8.7710114,45.686441 2.2926376,37.459758 1.2292146,35.932926 1.4951359,35.239946 1.7322524,34.62203 6.0091749,33.208386 17.199153,30.049325 20.974576,28.983479 25.09322,27.77548 26.351695,27.364882 L 28.639831,26.61834 35.784382,16.002549 C 39.713884,10.163864 43.385991,4.8935861 43.944613,4.290821 l 1.01568,-1.0959367 1.248922,1.44479 c 0.68691,0.7946345 4.363684,6.0553557 8.170612,11.6904907 6.82256,10.098965 6.947233,10.253964 8.705254,10.822624 0.980958,0.317308 5.816402,1.705295 10.745427,3.084416 11.063964,3.095652 13.76928,3.957651 14.459225,4.607163 0.696547,0.655725 0.05436,1.641235 -6.799267,10.434243 -2.849629,3.655991 -6.167597,7.946245 -7.373258,9.533898 l -2.192114,2.886644 0.01422,4.576271 c 0.0078,2.516949 0.163777,8.301451 0.346572,12.854452 0.182795,4.552997 0.236895,8.989894 0.120219,9.859771 l -0.212133,1.581589 -1.483738,-0.237256 c -0.816064,-0.130493 -6.411295,-2.013644 -12.433858,-4.184775 -6.02256,-2.171132 -11.46494,-4.118282 -12.094178,-4.326998 -1.240097,-0.411342 -2.363564,-0.0578 -17.161017,5.400476 -8.030721,2.962259 -10.763921,3.746811 -11.108827,3.188742 l 0,0 z"
     id="path5212"
     inkscape:connector-curvature="0" />
  <path
     style="opacity:0;fill-opacity:1;stroke:none"
     d="m 17.912359,86.411425 c -0.132226,-0.213948 -0.113947,-6.729536 0.04062,-14.479089 l 0.28103,-14.090095 -2.253929,-2.931716 C 14.740417,53.298084 11.496337,49.147246 8.7710114,45.686441 2.2926376,37.459758 1.2292146,35.932926 1.4951359,35.239946 1.7322524,34.62203 6.0091749,33.208386 17.199153,30.049325 20.974576,28.983479 25.09322,27.77548 26.351695,27.364882 L 28.639831,26.61834 35.784382,16.002549 C 39.713884,10.163864 43.385991,4.8935861 43.944613,4.290821 l 1.01568,-1.0959367 1.248922,1.44479 c 0.68691,0.7946345 4.363684,6.0553557 8.170612,11.6904907 6.82256,10.098965 6.947233,10.253964 8.705254,10.822624 0.980958,0.317308 5.816402,1.705295 10.745427,3.084416 11.063964,3.095652 13.76928,3.957651 14.459225,4.607163 0.696547,0.655725 0.05436,1.641235 -6.799267,10.434243 -2.849629,3.655991 -6.167597,7.946245 -7.373258,9.533898 l -2.192114,2.886644 0.01422,4.576271 c 0.0078,2.516949 0.163777,8.301451 0.346572,12.854452 0.182795,4.552997 0.236895,8.989894 0.120219,9.859771 l -0.212133,1.581589 -1.483738,-0.237256 c -0.816064,-0.130493 -6.411295,-2.013644 -12.433858,-4.184775 -6.02256,-2.171132 -11.46494,-4.118282 -12.094178,-4.326998 -1.240097,-0.411342 -2.363564,-0.0578 -17.161017,5.400476 -8.030721,2.962259 -10.763921,3.746811 -11.108827,3.188742 l 0,0 z"
     id="path5214"
     inkscape:connector-curvature="0" />
  <path
     style="opacity:0;fill-opacity:1;stroke:none"
     d="m 17.912359,86.411425 c -0.132226,-0.213948 -0.113947,-6.729536 0.04062,-14.479089 l 0.28103,-14.090095 -2.253929,-2.931716 C 14.740417,53.298084 11.496337,49.147246 8.7710114,45.686441 2.2926376,37.459758 1.2292146,35.932926 1.4951359,35.239946 1.7322524,34.62203 6.0091749,33.208386 17.199153,30.049325 20.974576,28.983479 25.09322,27.77548 26.351695,27.364882 L 28.639831,26.61834 35.784382,16.002549 C 39.713884,10.163864 43.385991,4.8935861 43.944613,4.290821 l 1.01568,-1.0959367 1.248922,1.44479 c 0.68691,0.7946345 4.363684,6.0553557 8.170612,11.6904907 6.82256,10.098965 6.947233,10.253964 8.705254,10.822624 0.980958,0.317308 5.816402,1.705295 10.745427,3.084416 11.063964,3.095652 13.76928,3.957651 14.459225,4.607163 0.696547,0.655725 0.05436,1.641235 -6.799267,10.434243 -2.849629,3.655991 -6.167597,7.946245 -7.373258,9.533898 l -2.192114,2.886644 0.01422,4.576271 c 0.0078,2.516949 0.163777,8.301451 0.346572,12.854452 0.182795,4.552997 0.236895,8.989894 0.120219,9.859771 l -0.212133,1.581589 -1.483738,-0.237256 c -0.816064,-0.130493 -6.411295,-2.013644 -12.433858,-4.184775 -6.02256,-2.171132 -11.46494,-4.118282 -12.094178,-4.326998 -1.240097,-0.411342 -2.363564,-0.0578 -17.161017,5.400476 -8.030721,2.962259 -10.763921,3.746811 -11.108827,3.188742 l 0,0 z"
     id="path5216"
     inkscape:connector-curvature="0" />
  <path
     style="opacity:0;fill-opacity:1;stroke:none"
     d="m 17.912359,86.411425 c -0.132226,-0.213948 -0.113947,-6.729536 0.04062,-14.479089 l 0.28103,-14.090095 -2.253929,-2.931716 C 14.740417,53.298084 11.496337,49.147246 8.7710114,45.686441 2.2926376,37.459758 1.2292146,35.932926 1.4951359,35.239946 1.7322524,34.62203 6.0091749,33.208386 17.199153,30.049325 20.974576,28.983479 25.09322,27.77548 26.351695,27.364882 L 28.639831,26.61834 35.784382,16.002549 C 39.713884,10.163864 43.385991,4.8935861 43.944613,4.290821 l 1.01568,-1.0959367 1.248922,1.44479 c 0.68691,0.7946345 4.363684,6.0553557 8.170612,11.6904907 6.82256,10.098965 6.947233,10.253964 8.705254,10.822624 0.980958,0.317308 5.816402,1.705295 10.745427,3.084416 11.063964,3.095652 13.76928,3.957651 14.459225,4.607163 0.696547,0.655725 0.05436,1.641235 -6.799267,10.434243 -2.849629,3.655991 -6.167597,7.946245 -7.373258,9.533898 l -2.192114,2.886644 0.01422,4.576271 c 0.0078,2.516949 0.163777,8.301451 0.346572,12.854452 0.182795,4.552997 0.236895,8.989894 0.120219,9.859771 l -0.212133,1.581589 -1.483738,-0.237256 c -0.816064,-0.130493 -6.411295,-2.013644 -12.433858,-4.184775 -6.02256,-2.171132 -11.46494,-4.118282 -12.094178,-4.326998 -1.240097,-0.411342 -2.363564,-0.0578 -17.161017,5.400476 -8.030721,2.962259 -10.763921,3.746811 -11.108827,3.188742 l 0,0 z"
     id="path5218"
     inkscape:connector-curvature="0" />
  <path
     style="opacity:0;fill-opacity:1;stroke:none"
     d="m 17.912359,86.411425 c -0.132226,-0.213948 -0.113947,-6.729536 0.04062,-14.479089 l 0.28103,-14.090095 -2.253929,-2.931716 C 14.740417,53.298084 11.496337,49.147246 8.7710114,45.686441 2.2926376,37.459758 1.2292146,35.932926 1.4951359,35.239946 1.7322524,34.62203 6.0091749,33.208386 17.199153,30.049325 20.974576,28.983479 25.09322,27.77548 26.351695,27.364882 L 28.639831,26.61834 35.784382,16.002549 C 39.713884,10.163864 43.385991,4.8935861 43.944613,4.290821 l 1.01568,-1.0959367 1.248922,1.44479 c 0.68691,0.7946345 4.363684,6.0553557 8.170612,11.6904907 6.82256,10.098965 6.947233,10.253964 8.705254,10.822624 0.980958,0.317308 5.816402,1.705295 10.745427,3.084416 11.063964,3.095652 13.76928,3.957651 14.459225,4.607163 0.696547,0.655725 0.05436,1.641235 -6.799267,10.434243 -2.849629,3.655991 -6.167597,7.946245 -7.373258,9.533898 l -2.192114,2.886644 0.01422,4.576271 c 0.0078,2.516949 0.163777,8.301451 0.346572,12.854452 0.182795,4.552997 0.236895,8.989894 0.120219,9.859771 l -0.212133,1.581589 -1.483738,-0.237256 c -0.816064,-0.130493 -6.411295,-2.013644 -12.433858,-4.184775 -6.02256,-2.171132 -11.46494,-4.118282 -12.094178,-4.326998 -1.240097,-0.411342 -2.363564,-0.0578 -17.161017,5.400476 -8.030721,2.962259 -10.763921,3.746811 -11.108827,3.188742 l 0,0 z"
     id="path5220"
     inkscape:connector-curvature="0" />
  <path
     style="opacity:0;fill-opacity:1;stroke:none;fill:#dd4813"
     d="m 17.912359,86.411425 c -0.132226,-0.213948 -0.113947,-6.729536 0.04062,-14.479089 l 0.28103,-14.090095 -2.253929,-2.931716 C 14.740417,53.298084 11.496337,49.147246 8.7710114,45.686441 2.2926376,37.459758 1.2292146,35.932926 1.4951359,35.239946 1.7322524,34.62203 6.0091749,33.208386 17.199153,30.049325 20.974576,28.983479 25.09322,27.77548 26.351695,27.364882 L 28.639831,26.61834 35.784382,16.002549 C 39.713884,10.163864 43.385991,4.8935861 43.944613,4.290821 l 1.01568,-1.0959367 1.248922,1.44479 c 0.68691,0.7946345 4.363684,6.0553557 8.170612,11.6904907 6.82256,10.098965 6.947233,10.253964 8.705254,10.822624 0.980958,0.317308 5.816402,1.705295 10.745427,3.084416 11.063964,3.095652 13.76928,3.957651 14.459225,4.607163 0.696547,0.655725 0.05436,1.641235 -6.799267,10.434243 -2.849629,3.655991 -6.167597,7.946245 -7.373258,9.533898 l -2.192114,2.886644 0.01422,4.576271 c 0.0078,2.516949 0.163777,8.301451 0.346572,12.854452 0.182795,4.552997 0.236895,8.989894 0.120219,9.859771 l -0.212133,1.581589 -1.483738,-0.237256 c -0.816064,-0.130493 -6.411295,-2.013644 -12.433858,-4.184775 -6.02256,-2.171132 -11.46494,-4.118282 -12.094178,-4.326998 -1.240097,-0.411342 -2.363564,-0.0578 -17.161017,5.400476 -8.030721,2.962259 -10.763921,3.746811 -11.108827,3.188742 l 0,0 z"
     id="path5222"
     inkscape:connector-curvature="0" />
  <path
     style="opacity:0;fill:#dd4813;fill-opacity:1;stroke:none"
     d="m 17.912359,86.411425 c -0.132226,-0.213948 -0.113947,-6.729536 0.04062,-14.479089 l 0.28103,-14.090095 -2.253929,-2.931716 C 14.740417,53.298084 11.496337,49.147246 8.7710114,45.686441 2.2926376,37.459758 1.2292146,35.932926 1.4951359,35.239946 1.7322524,34.62203 6.0091749,33.208386 17.199153,30.049325 20.974576,28.983479 25.09322,27.77548 26.351695,27.364882 L 28.639831,26.61834 35.784382,16.002549 C 39.713884,10.163864 43.385991,4.8935861 43.944613,4.290821 l 1.01568,-1.0959367 1.248922,1.44479 c 0.68691,0.7946345 4.363684,6.0553557 8.170612,11.6904907 6.82256,10.098965 6.947233,10.253964 8.705254,10.822624 0.980958,0.317308 5.816402,1.705295 10.745427,3.084416 11.063964,3.095652 13.76928,3.957651 14.459225,4.607163 0.696547,0.655725 0.05436,1.641235 -6.799267,10.434243 -2.849629,3.655991 -6.167597,7.946245 -7.373258,9.533898 l -2.192114,2.886644 0.01422,4.576271 c 0.0078,2.516949 0.163777,8.301451 0.346572,12.854452 0.182795,4.552997 0.236895,8.989894 0.120219,9.859771 l -0.212133,1.581589 -1.483738,-0.237256 c -0.816064,-0.130493 -6.411295,-2.013644 -12.433858,-4.184775 -6.02256,-2.171132 -11.46494,-4.118282 -12.094178,-4.326998 -1.240097,-0.411342 -2.363564,-0.0578 -17.161017,5.400476 -8.030721,2.962259 -10.763921,3.746811 -11.108827,3.188742 l 0,0 z"
     id="path5224"
     inkscape:connector-curvature="0" />
  <path
     style="opacity:0;fill:#dd4813;fill-opacity:1;stroke:none"
     d="m 17.912359,86.411425 c -0.132226,-0.213948 -0.113947,-6.729536 0.04062,-14.479089 l 0.28103,-14.090095 -2.253929,-2.931716 C 14.740417,53.298084 11.496337,49.147246 8.7710114,45.686441 2.2926376,37.459758 1.2292146,35.932926 1.4951359,35.239946 1.7322524,34.62203 6.0091749,33.208386 17.199153,30.049325 20.974576,28.983479 25.09322,27.77548 26.351695,27.364882 L 28.639831,26.61834 35.784382,16.002549 C 39.713884,10.163864 43.385991,4.8935861 43.944613,4.290821 l 1.01568,-1.0959367 1.248922,1.44479 c 0.68691,0.7946345 4.363684,6.0553557 8.170612,11.6904907 6.82256,10.098965 6.947233,10.253964 8.705254,10.822624 0.980958,0.317308 5.816402,1.705295 10.745427,3.084416 11.063964,3.095652 13.76928,3.957651 14.459225,4.607163 0.696547,0.655725 0.05436,1.641235 -6.799267,10.434243 -2.849629,3.655991 -6.167597,7.946245 -7.373258,9.533898 l -2.192114,2.886644 0.01422,4.576271 c 0.0078,2.516949 0.163777,8.301451 0.346572,12.854452 0.182795,4.552997 0.236895,8.989894 0.120219,9.859771 l -0.212133,1.581589 -1.483738,-0.237256 c -0.816064,-0.130493 -6.411295,-2.013644 -12.433858,-4.184775 -6.02256,-2.171132 -11.46494,-4.118282 -12.094178,-4.326998 -1.240097,-0.411342 -2.363564,-0.0578 -17.161017,5.400476 -8.030721,2.962259 -10.763921,3.746811 -11.108827,3.188742 l 0,0 z"
     id="path5226"
     inkscape:connector-curvature="0" />
  <path
     style="opacity:0;fill:#dd4813;fill-opacity:1;stroke:none"
     d="m 17.912359,86.411425 c -0.132226,-0.213948 -0.113947,-6.729536 0.04062,-14.479089 l 0.28103,-14.090095 -2.253929,-2.931716 C 14.740417,53.298084 11.496337,49.147246 8.7710114,45.686441 2.2926376,37.459758 1.2292146,35.932926 1.4951359,35.239946 1.7322524,34.62203 6.0091749,33.208386 17.199153,30.049325 20.974576,28.983479 25.09322,27.77548 26.351695,27.364882 L 28.639831,26.61834 35.784382,16.002549 C 39.713884,10.163864 43.385991,4.8935861 43.944613,4.290821 l 1.01568,-1.0959367 1.248922,1.44479 c 0.68691,0.7946345 4.363684,6.0553557 8.170612,11.6904907 6.82256,10.098965 6.947233,10.253964 8.705254,10.822624 0.980958,0.317308 5.816402,1.705295 10.745427,3.084416 11.063964,3.095652 13.76928,3.957651 14.459225,4.607163 0.696547,0.655725 0.05436,1.641235 -6.799267,10.434243 -2.849629,3.655991 -6.167597,7.946245 -7.373258,9.533898 l -2.192114,2.886644 0.01422,4.576271 c 0.0078,2.516949 0.163777,8.301451 0.346572,12.854452 0.182795,4.552997 0.236895,8.989894 0.120219,9.859771 l -0.212133,1.581589 -1.483738,-0.237256 c -0.816064,-0.130493 -6.411295,-2.013644 -12.433858,-4.184775 -6.02256,-2.171132 -11.46494,-4.118282 -12.094178,-4.326998 -1.240097,-0.411342 -2.363564,-0.0578 -17.161017,5.400476 -8.030721,2.962259 -10.763921,3.746811 -11.108827,3.188742 l 0,0 z"
     id="path5228"
     inkscape:connector-curvature="0" />
  <path
     style="opacity:0;fill:#dd4813;fill-opacity:1;stroke:none"
     d="m 17.912359,86.411425 c -0.132226,-0.213948 -0.113947,-6.729536 0.04062,-14.479089 l 0.28103,-14.090095 -2.253929,-2.931716 C 14.740417,53.298084 11.496337,49.147246 8.7710114,45.686441 2.2926376,37.459758 1.2292146,35.932926 1.4951359,35.239946 1.7322524,34.62203 6.0091749,33.208386 17.199153,30.049325 20.974576,28.983479 25.09322,27.77548 26.351695,27.364882 L 28.639831,26.61834 35.784382,16.002549 C 39.713884,10.163864 43.385991,4.8935861 43.944613,4.290821 l 1.01568,-1.0959367 1.248922,1.44479 c 0.68691,0.7946345 4.363684,6.0553557 8.170612,11.6904907 6.82256,10.098965 6.947233,10.253964 8.705254,10.822624 0.980958,0.317308 5.816402,1.705295 10.745427,3.084416 11.063964,3.095652 13.76928,3.957651 14.459225,4.607163 0.696547,0.655725 0.05436,1.641235 -6.799267,10.434243 -2.849629,3.655991 -6.167597,7.946245 -7.373258,9.533898 l -2.192114,2.886644 0.01422,4.576271 c 0.0078,2.516949 0.163777,8.301451 0.346572,12.854452 0.182795,4.552997 0.236895,8.989894 0.120219,9.859771 l -0.212133,1.581589 -1.483738,-0.237256 c -0.816064,-0.130493 -6.411295,-2.013644 -12.433858,-4.184775 -6.02256,-2.171132 -11.46494,-4.118282 -12.094178,-4.326998 -1.240097,-0.411342 -2.363564,-0.0578 -17.161017,5.400476 -8.030721,2.962259 -10.763921,3.746811 -11.108827,3.188742 l 0,0 z"
     id="path5230"
     inkscape:connector-curvature="0" />
</svg>
