<?xml version="1.0" encoding="UTF-8" standalone="no"?>
<!-- Created with Inkscape (http://www.inkscape.org/) -->
<svg id="svg3289" xmlns:rdf="http://www.w3.org/1999/02/22-rdf-syntax-ns#" xmlns="http://www.w3.org/2000/svg" height="90" width="90" version="1.1" xmlns:cc="http://creativecommons.org/ns#" xmlns:dc="http://purl.org/dc/elements/1.1/">
 <metadata id="metadata3294">
  <rdf:RDF>
   <cc:Work rdf:about="">
    <dc:format>image/svg+xml</dc:format>
    <dc:type rdf:resource="http://purl.org/dc/dcmitype/StillImage"/>
    <dc:title/>
   </cc:Work>
  </rdf:RDF>
 </metadata>
 <g id="layer1" transform="translate(0 -962.36)">
  <g id="g4451" transform="translate(-789 604.36)">
   <g id="g4143" transform="matrix(1.875 0 0 1.875 249 -1435.2)">
    <rect id="rect4145" style="opacity:.21171;fill:none" transform="translate(0 804.36)" height="48" width="48" y="152" x="288"/>
   </g>
   <path id="path3008" style="color:#000000;fill:#808080" d="m44.938 3c-1.44 0.0026-15.432 22.683-16.594 23.531-1.163 0.848-26.996 7.225-27.438 8.594-0.44197 1.369 16.772 21.663 17.219 23.031s-1.447 27.938-0.281 28.782c1.166 0.843 25.779-9.279 27.218-9.282 1.44-0.002 26.119 10.036 27.282 9.188 1.162-0.848-0.849-27.412-0.406-28.782 0.442-1.369 17.603-21.725 17.156-23.093s-26.303-7.656-27.469-8.5-15.248-23.472-16.687-23.469zm0.062 12l10 15c1.436 2.343 3.183 3.146 5.375 3.875l17.375 4.813-11.094 14.187c-1.79 2.106-2.175 4.2-2.062 6.437l0.812 18-16.937-6.187c-2.451-0.991-4.445-0.932-6.813 0.031l-16.875 6.282 0.688-18c0.154-2.806-0.548-4.492-2.125-6.5l-11.125-14.157 17.343-4.843c2.603-0.769 3.986-2.005 5.438-3.938l10-15z" transform="translate(789 358)"/>
   <rect id="rect2989" style="color:#000000;fill:none" transform="translate(789 358)" height="90" width="90" y="-.0000037276" x="0"/>
  </g>
 </g>
</svg>
