<?xml version="1.0" encoding="UTF-8" standalone="no"?>
<!-- Created with Inkscape (http://www.inkscape.org/) -->

<svg
   xmlns:dc="http://purl.org/dc/elements/1.1/"
   xmlns:cc="http://creativecommons.org/ns#"
   xmlns:rdf="http://www.w3.org/1999/02/22-rdf-syntax-ns#"
   xmlns:svg="http://www.w3.org/2000/svg"
   xmlns="http://www.w3.org/2000/svg"
   xmlns:sodipodi="http://sodipodi.sourceforge.net/DTD/sodipodi-0.dtd"
   xmlns:inkscape="http://www.inkscape.org/namespaces/inkscape"
   id="svg2"
   version="1.1"
   inkscape:version="0.48.4 r9939"
   width="80"
   height="80"
   xml:space="preserve"
   sodipodi:docname="key.svg"><metadata
     id="metadata8"><rdf:RDF><cc:Work
         rdf:about=""><dc:format>image/svg+xml</dc:format><dc:type
           rdf:resource="http://purl.org/dc/dcmitype/StillImage" /><dc:title></dc:title></cc:Work></rdf:RDF></metadata><defs
     id="defs6" /><sodipodi:namedview
     pagecolor="#ffffff"
     bordercolor="#666666"
     borderopacity="1"
     objecttolerance="10"
     gridtolerance="10"
     guidetolerance="10"
     inkscape:pageopacity="0"
     inkscape:pageshadow="2"
     inkscape:window-width="1329"
     inkscape:window-height="748"
     id="namedview4"
     showgrid="false"
     inkscape:zoom="2.95"
     inkscape:cx="40"
     inkscape:cy="40"
     inkscape:window-x="35"
     inkscape:window-y="-3"
     inkscape:window-maximized="1"
     inkscape:current-layer="g12" /><g
     id="g10"
     inkscape:groupmode="layer"
     inkscape:label="ink_ext_XXXXXX"
     transform="matrix(1.25,0,0,-1.25,0,80)"><g
       id="g12"
       transform="scale(0.1,0.1)"
       style="fill:#999999"><path
         d="m 165.25423,118.6441 c -29.4694,0 -53.38982,23.46476 -53.38982,52.37283 0,28.90809 23.92042,52.37289 53.38982,52.37289 21.35593,0 39.79142,-12.32334 48.33559,-30.09346 3.23898,-6.77879 5.05423,-14.32048 5.05423,-22.27943 0,-28.90807 -23.92041,-52.37283 -53.38982,-52.37283 z m 427.11865,488.81353 -71.18653,0 c -4.31021,0 -8.47468,-1.53455 -11.74926,-4.32949 L 263.77452,391.85593 c -12.7069,2.61864 -32.35251,6.11015 -45.13047,6.11015 -98.13228,0 -177.966084,-78.31315 -177.966084,-174.57626 0,-96.26307 79.833804,-174.576252 177.966084,-174.576252 98.13226,0 177.96604,78.313182 177.96604,174.576252 0,28.59386 -5.55426,47.76232 -11.85252,63.68543 l 60.57789,20.17925 c 7.36958,2.44758 12.24947,9.32239 12.06789,16.93218 l -1.49494,66.27089 67.98315,4.64374 c 9.11353,0.62845 16.266,7.92401 16.55085,16.86579 l 2.52347,79.57538 53.2511,11.58485 c 8.14721,1.74578 13.95253,8.87199 13.95253,17.04217 l 0,69.8305 c 0,9.6366 -7.9729,17.45763 -17.79663,17.45763"
         style="fill:#333333;fill-opacity:1;fill-rule:nonzero;stroke:none"
         id="path14"
         inkscape:connector-curvature="0" /></g></g></svg>